<svg id="Capa_1" enable-background="new 0 0 512 512" height="512" viewBox="0 0 512 512" width="512" xmlns="http://www.w3.org/2000/svg"><g><path d="m295.683 327.415c3-2.861 26.95-25.698 23.95-22.837 13.623-13.623 20.566-31.714 24.053-45.264-13.55 3.486-31.641 10.43-45.264 24.053l-28.315 28.315c1.338-73.01.893-50.152.893-54.682 0-23.716-7.925-42.832-15-55.166-7.075 12.319-15 31.436-15 55.166 0 13.504.905 19.777 3.472 58.945-2.848-3.004-33.742-35.582-30.894-32.578-13.623-13.623-31.714-20.566-45.264-24.053 3.486 13.55 10.43 31.641 24.053 45.264l19.995 19.995-24.536 8.335c-11.528 2.212-21.943 8.511-29.355 14.121 9.14 6.958 22.837 14.971 37.529 14.971l27.305-3.003c-6.925 21.118-8.077 23.745-9.844 30.586 26.141-6.819 37.438-17.907 42.539-20.757 7.157 3.994 15.718 13.717 42.539 20.742-1.95-7.394-3.039-9.796-9.844-30.571 3.003.33 30.322 3.333 27.319 3.003 14.634 0 28.345-8.027 37.5-14.985-7.412-5.596-17.813-11.895-29.341-14.106z"/><path d="m492.239 243 19.761-22.573-256.015-220.427-255.985 220.427 19.761 22.573 41.239-35.444v274.444h-30v30c5.312 0 465.317 0 450 0v-30h-30v-274.444zm-105.062 114.005c-1.128 1.26-24.976 27.495-57.583 33.691 1.948 9.507 2.417 15.923 2.446 16.333l1.172 17.036-17.036-1.025c-1.148-.073-21.846-1.567-45.176-11.202v40.162h-30v-40.162c-23.329 9.635-44.028 11.129-45.176 11.202l-17.036 1.025 1.172-17.036c.029-.41.498-6.826 2.446-16.333-32.607-6.196-56.455-32.432-57.583-33.691l-8.979-10.034 9.009-10.005c.747-.835 14.136-15.513 34.292-25.547-21.753-31.172-24.097-67.866-24.185-69.639l-.952-16.772 16.772.952c1.611.088 31.89 2.007 60.776 18.589 4.336-47.842 32.329-77.593 33.618-78.94l10.826-11.295 10.825 11.294c1.289 1.348 29.268 31.084 33.618 78.926 28.857-16.567 59.165-18.486 60.776-18.574l16.772-.952-.952 16.772c-.088 1.772-2.432 38.438-24.199 69.624 20.171 10.049 33.56 24.727 34.307 25.562l9.009 10.005z"/><path d="m421 0h-90v22.843l90 78.733z"/></g></svg>